<svg xmlns="http://www.w3.org/2000/svg" version="1.1" xmlns:xlink="http://www.w3.org/1999/xlink" xmlns:svgjs="http://svgjs.dev/svgjs" width="1000" height="1000" viewBox="0 0 1000 1000"><rect width="1000" height="1000" fill="#000000"></rect><g transform="matrix(0.7,0,0,0.7,149.57576733720998,447.3037194651714)"><svg viewBox="0 0 396 60" data-background-color="#000000" preserveAspectRatio="xMidYMid meet" height="151" width="1000" xmlns="http://www.w3.org/2000/svg" xmlns:xlink="http://www.w3.org/1999/xlink"><g id="tight-bounds" transform="matrix(1,0,0,1,0.23999447780693117,-0.08725797455329598)"><svg viewBox="0 0 395.52 60.1745159491066" height="60.1745159491066" width="395.52"><g><svg viewBox="0 0 518.1283421222895 78.82818109506945" height="60.1745159491066" width="395.52"><g><rect width="7.073439524215178" height="78.82818109506945" x="97.01804520484085" y="0" fill="#89939e" opacity="1" stroke-width="0" stroke="transparent" fill-opacity="1" class="rect-o-0" data-fill-palette-color="primary" rx="1%" id="o-0" data-palette-color="#89939e"></rect></g><g transform="matrix(1,0,0,1,122.60834212228947,0.19609000272404842)"><svg viewBox="0 0 395.52000000000004 78.43600108962136" height="78.43600108962136" width="395.52000000000004"><g id="textblocktransform"><svg viewBox="0 0 395.52000000000004 78.43600108962136" height="78.43600108962136" width="395.52000000000004" id="textblock"><g><svg viewBox="0 0 395.52000000000004 78.43600108962136" height="78.43600108962136" width="395.52000000000004"><g transform="matrix(1,0,0,1,0,0)"><svg width="395.52000000000004" viewBox="3 -35.900001525878906 183.5399932861328 36.400001525878906" height="78.43600108962136" data-palette-color="#89939e"><path d="M14.9 0L4 0 4-27.35 3-32.35 4-35.4 14.9-35.4Q18.5-35.4 21.83-34.73 25.15-34.05 27.78-32.2 30.4-30.35 31.93-26.9 33.45-23.45 33.45-17.95L33.45-17.95Q33.45-12.45 31.9-8.93 30.35-5.4 27.7-3.45 25.05-1.5 21.73-0.75 18.4 0 14.9 0L14.9 0ZM11.1-28.9L11.1-6.5 16.4-6.5Q21.6-6.5 23.8-9.58 26-12.65 26-17.95L26-17.95Q26-23.25 23.78-26.08 21.55-28.9 16.4-28.9L16.4-28.9 11.1-28.9ZM46.65 0L39.65 0 39.65-27.35 38.65-32.4 39.65-35.4 51.65-35.4Q55.3-35.4 58.22-34.27 61.15-33.15 62.87-30.48 64.6-27.8 64.6-23.1L64.6-23.1Q64.6-18.65 62.92-16 61.25-13.35 58.3-12.05L58.3-12.05 59.75-10.75 64.2-5.55 67.05-3 67.05 0 57.8 0 50.8-10.65 46.65-10.65 46.65-8.05 47.15-3.05 46.65 0ZM46.15-28.9L46.65-17 51.55-17Q54.85-17 56.05-18.73 57.25-20.45 57.25-23.1L57.25-23.1Q57.25-25.9 55.97-27.4 54.7-28.9 51.35-28.9L51.35-28.9 46.15-28.9ZM78.05 0L71.05 0 71.05-27.4 70.55-32.4 71.05-35.4 78.05-35.4 78.05 0ZM94.34 0.5L94.34 0.5Q90.49 0.5 87.79-0.53 85.09-1.55 83.74-2.7L83.74-2.7 83.74-9.6Q85.49-8.6 88.42-7.5 91.34-6.4 94.89-6.4L94.89-6.4Q97.19-6.4 98.32-7.3 99.44-8.2 99.44-9.75L99.44-9.75Q99.44-11.15 98.54-12.05 97.64-12.95 95.84-13.7 94.04-14.45 91.24-15.45L91.24-15.45Q87.24-16.9 85.04-19.2 82.84-21.5 82.84-25.4L82.84-25.4Q82.84-28.15 84.07-30.55 85.29-32.95 87.92-34.43 90.54-35.9 94.64-35.9L94.64-35.9Q96.24-35.9 97.82-35.77 99.39-35.65 100.49-35.45L100.49-35.45 106.14-31.3 103.64-26.2 94.49-29.45Q92.69-29.45 91.52-28.58 90.34-27.7 90.34-26.1L90.34-26.1Q90.34-24.1 92.02-23.05 93.69-22 96.74-21L96.74-21Q102.54-19.1 104.89-16.43 107.24-13.75 107.24-10.15L107.24-10.15Q107.24-7.25 106.04-4.83 104.84-2.4 102.02-0.95 99.19 0.5 94.34 0.5ZM119.84 0L112.34 0 112.34-27.35 111.84-32.35 112.34-35.4 119.34-35.4 119.34-20.8 133.79-20.8 133.79-35.4 140.79-35.4 140.79-16.6 141.29-13.15 141.29 0 133.79 0 133.79-14.25 119.34-14.25 119.34-10.2 119.84 0ZM163.54 0L156.54 0 156.54-29 145.54-28.5 145.54-35.4 174.79-35.4 174.79-28.5 163.54-29 163.54-8 164.09-3 163.54 0ZM186.54 0L179.54 0 179.54-27.4 179.04-32.4 179.54-35.4 186.54-35.4 186.54 0Z" opacity="1" transform="matrix(1,0,0,1,0,0)" fill="#89939e" class="undefined-text-0" data-fill-palette-color="primary" id="text-0"></path></svg></g></svg></g></svg></g></svg></g><g transform="matrix(1,0,0,1,0,0.19609000272404842)"><svg viewBox="0 0 78.5011878116074 78.43600108962136" height="78.43600108962136" width="78.5011878116074"><g><svg xmlns="http://www.w3.org/2000/svg" xmlns:xlink="http://www.w3.org/1999/xlink" version="1.1" x="0" y="0" viewBox="0 0.04199934005737305 99.99900817871094 99.91596984863281" enable-background="new 0 0 100 100" xml:space="preserve" height="78.43600108962136" width="78.5011878116074" class="icon-icon-0" data-fill-palette-color="accent" id="icon-0"><path fill-rule="evenodd" clip-rule="evenodd" d="M95.525 52.728c-5.582-1.496-6.847-14.585-2.268-17.228 1.501-0.87 2.665-2.104 3.434-3.527-1.191-4.343-5.255-10.6-7.548-13.383-1.676-0.078-3.39 0.305-4.95 1.206-4.995 2.886-15.321-4.833-13.783-10.578 0.481-1.795 0.227-3.972-0.165-5.244-2.839-1.468-9.562-3.443-14.555-3.932-1.076 0.783-2.308 2.676-2.788 4.483-1.629 6.075-14.52 6.958-17.285 2.17-0.923-1.6-2.623-3.09-3.798-3.58-3.23 0.979-10.249 5.048-13.088 7.397 0.196 1.664 0.234 3.597 1.188 5.247 2.763 4.789-4.72 15.438-10.629 13.855-1.944-0.52-3.984-0.372-5.648 0.313C2.271 32.963 0.196 40.97 0 44.2c0.392 0.881 2.729 2.428 4.598 2.928 8.043 2.156 8.106 13.951 2.279 17.315-1.646 0.951-3.056 2.271-3.643 3.936 0.979 3.132 4.913 10.018 7.458 12.955 1.664 0.195 3.597-0.232 5.248-1.187 5.204-3.007 15.612 4.064 13.853 10.631-0.457 1.709-0.204 3.507 0.089 5.27 3.916 1.664 11 4.005 14.916 3.907 1.272-1.175 2.057-2.812 2.504-4.483 1.54-5.748 14.253-7.582 17.257-2.378 0.839 1.455 2.014 2.836 3.384 3.619 4.111-1.175 11.338-5.219 13.788-7.764 0.096-1.859-0.604-3.412-1.474-4.922-3.247-5.619 4.338-15.458 10.575-13.786 1.708 0.456 3.568 0.302 5.135-0.089 1.37-3.427 3.642-9.549 4.032-14.639C98.629 53.947 97.329 53.212 95.525 52.728zM76.521 56.525c-3.807 14.217-18.417 22.651-32.632 18.843-14.213-3.81-22.647-18.423-18.839-32.639 3.808-14.216 18.418-22.651 32.631-18.842C71.895 27.696 80.33 42.307 76.521 56.525z" fill="#dedede" data-fill-palette-color="accent"></path></svg></g></svg></g></svg></g><defs></defs></svg><rect width="395.52" height="60.1745159491066" fill="none" stroke="none" visibility="hidden"></rect></g></svg></g></svg>