<svg id="visual" viewBox="0 0 900 900" width="900" height="900" xmlns="http://www.w3.org/2000/svg" xmlns:xlink="http://www.w3.org/1999/xlink" version="1.1"><g stroke-width="1" stroke-linejoin="bevel"><path d="M429 457L450 360.5L328.5 424Z" fill="#511c7a" stroke="#511c7a"></path><path d="M450 360.5L320.5 357.5L328.5 424Z" fill="#421b60" stroke="#421b60"></path><path d="M320.5 357.5L251 433L328.5 424Z" fill="#581c87" stroke="#581c87"></path><path d="M316.5 597.5L414 586.5L429 457Z" fill="#17121a" stroke="#17121a"></path><path d="M354.5 226L246 327.5L320.5 357.5Z" fill="#421b60" stroke="#421b60"></path><path d="M320.5 357.5L246 327.5L251 433Z" fill="#511c7a" stroke="#511c7a"></path><path d="M450 360.5L354.5 226L320.5 357.5Z" fill="#581c87" stroke="#581c87"></path><path d="M316.5 597.5L429 457L328.5 424Z" fill="#4a1c6d" stroke="#4a1c6d"></path><path d="M429 457L591.5 455L450 360.5Z" fill="#511c7a" stroke="#511c7a"></path><path d="M450 360.5L452 201L354.5 226Z" fill="#2d183b" stroke="#2d183b"></path><path d="M536.5 560.5L591.5 455L429 457Z" fill="#1e1425" stroke="#1e1425"></path><path d="M450 360.5L536.5 191L452 201Z" fill="#17121a" stroke="#17121a"></path><path d="M591.5 455L595.5 350.5L450 360.5Z" fill="#17121a" stroke="#17121a"></path><path d="M237 571.5L316.5 597.5L328.5 424Z" fill="#0e0e0e" stroke="#0e0e0e"></path><path d="M414 586.5L536.5 560.5L429 457Z" fill="#511c7a" stroke="#511c7a"></path><path d="M251 433L237 571.5L328.5 424Z" fill="#2d183b" stroke="#2d183b"></path><path d="M146.5 482L237 571.5L251 433Z" fill="#511c7a" stroke="#511c7a"></path><path d="M192 142.5L216 242L354.5 226Z" fill="#421b60" stroke="#421b60"></path><path d="M354.5 226L216 242L246 327.5Z" fill="#4a1c6d" stroke="#4a1c6d"></path><path d="M114.5 362.5L146.5 482L251 433Z" fill="#341947" stroke="#341947"></path><path d="M595.5 350.5L536.5 191L450 360.5Z" fill="#421b60" stroke="#421b60"></path><path d="M114.5 362.5L251 433L246 327.5Z" fill="#341947" stroke="#341947"></path><path d="M424 123.5L366.5 135.5L452 201Z" fill="#2d183b" stroke="#2d183b"></path><path d="M452 201L366.5 135.5L354.5 226Z" fill="#3b1a53" stroke="#3b1a53"></path><path d="M217 674L355.5 664L316.5 597.5Z" fill="#4a1c6d" stroke="#4a1c6d"></path><path d="M316.5 597.5L355.5 664L414 586.5Z" fill="#3b1a53" stroke="#3b1a53"></path><path d="M414 586.5L446 693L536.5 560.5Z" fill="#3b1a53" stroke="#3b1a53"></path><path d="M536.5 560.5L654 483L591.5 455Z" fill="#17121a" stroke="#17121a"></path><path d="M591.5 455L671 374.5L595.5 350.5Z" fill="#2d183b" stroke="#2d183b"></path><path d="M595.5 350.5L649 226L536.5 191Z" fill="#341947" stroke="#341947"></path><path d="M536.5 191L424 123.5L452 201Z" fill="#3b1a53" stroke="#3b1a53"></path><path d="M654 483L671 374.5L591.5 455Z" fill="#0e0e0e" stroke="#0e0e0e"></path><path d="M216 242L114.5 362.5L246 327.5Z" fill="#1e1425" stroke="#1e1425"></path><path d="M355.5 664L446 693L414 586.5Z" fill="#2d183b" stroke="#2d183b"></path><path d="M536.5 560.5L682 531.5L654 483Z" fill="#17121a" stroke="#17121a"></path><path d="M671 374.5L649 226L595.5 350.5Z" fill="#3b1a53" stroke="#3b1a53"></path><path d="M536.5 191L533.5 78.5L424 123.5Z" fill="#2d183b" stroke="#2d183b"></path><path d="M565.5 672L682 531.5L536.5 560.5Z" fill="#581c87" stroke="#581c87"></path><path d="M654 483L752.5 527.5L671 374.5Z" fill="#17121a" stroke="#17121a"></path><path d="M446 693L565.5 672L536.5 560.5Z" fill="#3b1a53" stroke="#3b1a53"></path><path d="M366.5 135.5L192 142.5L354.5 226Z" fill="#421b60" stroke="#421b60"></path><path d="M216 242L101.5 230L114.5 362.5Z" fill="#261630" stroke="#261630"></path><path d="M145.5 122.5L192 142.5L259 0Z" fill="#0e0e0e" stroke="#0e0e0e"></path><path d="M237 571.5L217 674L316.5 597.5Z" fill="#581c87" stroke="#581c87"></path><path d="M355.5 664L369.5 761.5L446 693Z" fill="#3b1a53" stroke="#3b1a53"></path><path d="M78.5 573.5L217 674L237 571.5Z" fill="#581c87" stroke="#581c87"></path><path d="M192 142.5L101.5 230L216 242Z" fill="#261630" stroke="#261630"></path><path d="M675 96.5L533.5 78.5L536.5 191Z" fill="#0e0e0e" stroke="#0e0e0e"></path><path d="M424 123.5L373.5 0L366.5 135.5Z" fill="#3b1a53" stroke="#3b1a53"></path><path d="M0 438L78.5 573.5L146.5 482Z" fill="#421b60" stroke="#421b60"></path><path d="M146.5 482L78.5 573.5L237 571.5Z" fill="#2d183b" stroke="#2d183b"></path><path d="M0 438L146.5 482L114.5 362.5Z" fill="#2d183b" stroke="#2d183b"></path><path d="M227 780.5L369.5 761.5L355.5 664Z" fill="#421b60" stroke="#421b60"></path><path d="M446 693L479 790.5L565.5 672Z" fill="#0e0e0e" stroke="#0e0e0e"></path><path d="M259 0L192 142.5L366.5 135.5Z" fill="#2d183b" stroke="#2d183b"></path><path d="M192 142.5L145.5 122.5L101.5 230Z" fill="#421b60" stroke="#421b60"></path><path d="M749.5 658L752.5 527.5L682 531.5Z" fill="#3b1a53" stroke="#3b1a53"></path><path d="M682 531.5L752.5 527.5L654 483Z" fill="#261630" stroke="#261630"></path><path d="M671 374.5L757.5 242L649 226Z" fill="#1e1425" stroke="#1e1425"></path><path d="M0 305.5L0 438L114.5 362.5Z" fill="#341947" stroke="#341947"></path><path d="M0 305.5L114.5 362.5L101.5 230Z" fill="#581c87" stroke="#581c87"></path><path d="M787.5 302.5L757.5 242L671 374.5Z" fill="#1e1425" stroke="#1e1425"></path><path d="M649 226L675 96.5L536.5 191Z" fill="#17121a" stroke="#17121a"></path><path d="M442 0L373.5 0L424 123.5Z" fill="#341947" stroke="#341947"></path><path d="M369.5 761.5L479 790.5L446 693Z" fill="#261630" stroke="#261630"></path><path d="M565.5 672L692 675L682 531.5Z" fill="#3b1a53" stroke="#3b1a53"></path><path d="M535.5 0L442 0L533.5 78.5Z" fill="#261630" stroke="#261630"></path><path d="M533.5 78.5L442 0L424 123.5Z" fill="#1e1425" stroke="#1e1425"></path><path d="M0 220L0 305.5L101.5 230Z" fill="#421b60" stroke="#421b60"></path><path d="M821.5 464L787.5 302.5L671 374.5Z" fill="#17121a" stroke="#17121a"></path><path d="M654 786.5L692 675L565.5 672Z" fill="#2d183b" stroke="#2d183b"></path><path d="M780.5 148.5L675 96.5L649 226Z" fill="#421b60" stroke="#421b60"></path><path d="M90.5 703L227 780.5L217 674Z" fill="#261630" stroke="#261630"></path><path d="M217 674L227 780.5L355.5 664Z" fill="#2d183b" stroke="#2d183b"></path><path d="M369.5 761.5L437 900L479 790.5Z" fill="#2d183b" stroke="#2d183b"></path><path d="M373.5 0L259 0L366.5 135.5Z" fill="#581c87" stroke="#581c87"></path><path d="M0 438L0 552.5L78.5 573.5Z" fill="#421b60" stroke="#421b60"></path><path d="M78.5 573.5L90.5 703L217 674Z" fill="#581c87" stroke="#581c87"></path><path d="M675 96.5L535.5 0L533.5 78.5Z" fill="#4a1c6d" stroke="#4a1c6d"></path><path d="M0 709L90.5 703L78.5 573.5Z" fill="#0e0e0e" stroke="#0e0e0e"></path><path d="M0 117.5L0 220L101.5 230Z" fill="#1e1425" stroke="#1e1425"></path><path d="M0 117.5L101.5 230L145.5 122.5Z" fill="#511c7a" stroke="#511c7a"></path><path d="M752.5 527.5L821.5 464L671 374.5Z" fill="#511c7a" stroke="#511c7a"></path><path d="M900 528.5L821.5 464L752.5 527.5Z" fill="#4a1c6d" stroke="#4a1c6d"></path><path d="M759.5 799.5L749.5 658L692 675Z" fill="#421b60" stroke="#421b60"></path><path d="M692 675L749.5 658L682 531.5Z" fill="#511c7a" stroke="#511c7a"></path><path d="M571.5 900L593.5 808.5L479 790.5Z" fill="#3b1a53" stroke="#3b1a53"></path><path d="M479 790.5L593.5 808.5L565.5 672Z" fill="#511c7a" stroke="#511c7a"></path><path d="M757.5 242L780.5 148.5L649 226Z" fill="#421b60" stroke="#421b60"></path><path d="M675 96.5L698 0L535.5 0Z" fill="#1e1425" stroke="#1e1425"></path><path d="M900 220L780.5 148.5L757.5 242Z" fill="#4a1c6d" stroke="#4a1c6d"></path><path d="M900 220L757.5 242L787.5 302.5Z" fill="#0e0e0e" stroke="#0e0e0e"></path><path d="M593.5 808.5L654 786.5L565.5 672Z" fill="#261630" stroke="#261630"></path><path d="M112.5 0L0 117.5L145.5 122.5Z" fill="#341947" stroke="#341947"></path><path d="M90.5 703L97.5 784.5L227 780.5Z" fill="#341947" stroke="#341947"></path><path d="M320.5 900L437 900L369.5 761.5Z" fill="#581c87" stroke="#581c87"></path><path d="M0 752.5L97.5 784.5L90.5 703Z" fill="#0e0e0e" stroke="#0e0e0e"></path><path d="M259 0L112.5 0L145.5 122.5Z" fill="#421b60" stroke="#421b60"></path><path d="M0 552.5L0 709L78.5 573.5Z" fill="#0e0e0e" stroke="#0e0e0e"></path><path d="M757.5 0L698 0L675 96.5Z" fill="#511c7a" stroke="#511c7a"></path><path d="M320.5 900L369.5 761.5L227 780.5Z" fill="#17121a" stroke="#17121a"></path><path d="M593.5 808.5L642 900L654 786.5Z" fill="#0e0e0e" stroke="#0e0e0e"></path><path d="M212 900L320.5 900L227 780.5Z" fill="#4a1c6d" stroke="#4a1c6d"></path><path d="M900 449L900 363.5L821.5 464Z" fill="#4a1c6d" stroke="#4a1c6d"></path><path d="M821.5 464L900 363.5L787.5 302.5Z" fill="#1e1425" stroke="#1e1425"></path><path d="M780.5 148.5L757.5 0L675 96.5Z" fill="#17121a" stroke="#17121a"></path><path d="M900 528.5L900 449L821.5 464Z" fill="#4a1c6d" stroke="#4a1c6d"></path><path d="M749.5 658L900 528.5L752.5 527.5Z" fill="#511c7a" stroke="#511c7a"></path><path d="M900 707L900 528.5L749.5 658Z" fill="#511c7a" stroke="#511c7a"></path><path d="M0 709L0 752.5L90.5 703Z" fill="#2d183b" stroke="#2d183b"></path><path d="M144.5 900L212 900L227 780.5Z" fill="#421b60" stroke="#421b60"></path><path d="M437 900L571.5 900L479 790.5Z" fill="#4a1c6d" stroke="#4a1c6d"></path><path d="M654 786.5L759.5 799.5L692 675Z" fill="#4a1c6d" stroke="#4a1c6d"></path><path d="M144.5 900L227 780.5L97.5 784.5Z" fill="#4a1c6d" stroke="#4a1c6d"></path><path d="M900 363.5L900 220L787.5 302.5Z" fill="#3b1a53" stroke="#3b1a53"></path><path d="M900 119.5L757.5 0L780.5 148.5Z" fill="#511c7a" stroke="#511c7a"></path><path d="M642 900L759.5 799.5L654 786.5Z" fill="#261630" stroke="#261630"></path><path d="M112.5 0L0 0L0 117.5Z" fill="#2d183b" stroke="#2d183b"></path><path d="M0 900L144.5 900L97.5 784.5Z" fill="#17121a" stroke="#17121a"></path><path d="M571.5 900L642 900L593.5 808.5Z" fill="#421b60" stroke="#421b60"></path><path d="M900 220L900 119.5L780.5 148.5Z" fill="#341947" stroke="#341947"></path><path d="M900 771.5L900 707L759.5 799.5Z" fill="#421b60" stroke="#421b60"></path><path d="M759.5 799.5L900 707L749.5 658Z" fill="#581c87" stroke="#581c87"></path><path d="M642 900L761.5 900L759.5 799.5Z" fill="#17121a" stroke="#17121a"></path><path d="M900 900L900 771.5L759.5 799.5Z" fill="#581c87" stroke="#581c87"></path><path d="M0 752.5L0 900L97.5 784.5Z" fill="#0e0e0e" stroke="#0e0e0e"></path><path d="M900 119.5L900 0L757.5 0Z" fill="#261630" stroke="#261630"></path><path d="M761.5 900L900 900L759.5 799.5Z" fill="#341947" stroke="#341947"></path></g></svg>