<?xml version="1.0" encoding="utf-8"?>
<!-- Generator: Adobe Illustrator 27.0.0, SVG Export Plug-In . SVG Version: 6.00 Build 0)  -->
<svg version="1.1" id="Layer_1" xmlns="http://www.w3.org/2000/svg" xmlns:xlink="http://www.w3.org/1999/xlink" x="0px" y="0px"
	 viewBox="0 0 450 400" style="enable-background:new 0 0 450 400;" xml:space="preserve">
<style type="text/css">
	.st0{display:none;fill:#FF0000;}
	.st1{fill:#FF0000;}
	.st2{fill:#950101;}
	.st3{display:none;fill:#FF0000;}
	.st4{fill:#FF0000;}
	.st5{fill:#3D0000;}
	.st6{opacity:0.3;fill:url(#SVGID_1_);}
</style>
<rect class="st0" width="450" height="400"/>
<g>
	<g>
		<path class="st1" d="M160.4,156.47c17.07-20.51,42.91-35.21,69.86-35.34c28.42-0.14,51.77,19.88,66.02,42.85
			c0.25,0.4,2.29,4.55,2.74,4.55c-0.28,0.97-3.25-2.71-3.49-2.98c-4.95-5.48-10.07-10.69-15.46-15.74
			c-10.66-9.98-24.49-19.51-38.95-22.75c-26.62-5.96-52.78,5.56-72.86,22.75c-1.83,1.57-3.62,3.19-5.35,4.88
			C162.37,155.21,161.09,157.25,160.4,156.47z"/>
		<path class="st2" d="M264.61,175.93c0,19.97-16.19,36.15-36.16,36.15c-19.96,0-36.15-16.19-36.15-36.15
			c0-19.97,16.19-36.16,36.15-36.16C248.42,139.78,264.61,155.96,264.61,175.93z"/>
		<path d="M228.45,210.17c-3.6,0-7.14-0.56-10.54-1.65l0.92-2.86c6.22,2.01,13.09,2,19.3-0.02l0.93,2.85
			C235.64,209.6,232.08,210.17,228.45,210.17z M212.95,206.46c-3.2-1.63-6.12-3.74-8.66-6.29l2.12-2.12
			c2.33,2.32,4.99,4.25,7.91,5.74L212.95,206.46z M244.02,206.43l-1.37-2.67c2.92-1.49,5.57-3.43,7.9-5.75l2.12,2.12
			C250.13,202.68,247.22,204.8,244.02,206.43z M200.79,196.1c-4.28-5.87-6.55-12.82-6.57-20.1l3-0.01
			c0.01,6.65,2.08,12.99,5.99,18.34L200.79,196.1z M256.16,196.05l-2.43-1.77c3.9-5.36,5.96-11.7,5.96-18.35v-0.13h3v0.13
			C262.69,183.22,260.43,190.17,256.16,196.05z M197.59,171.11l-2.96-0.46c0.55-3.56,1.66-6.99,3.29-10.19l2.68,1.36
			C199.1,164.74,198.09,167.87,197.59,171.11z M259.29,170.92c-0.52-3.24-1.55-6.36-3.05-9.28l2.67-1.37
			c1.65,3.2,2.77,6.62,3.35,10.17L259.29,170.92z M203.14,157.63l-2.43-1.76c4.22-5.82,10.28-10.25,17.08-12.48l0.93,2.85
			C212.52,148.28,206.99,152.32,203.14,157.63z M253.66,157.48c-3.88-5.29-9.43-9.3-15.65-11.29l0.92-2.86
			c6.81,2.19,12.9,6.58,17.15,12.38L253.66,157.48z M223.48,145.09l-0.47-2.96c3.51-0.56,7.18-0.57,10.7-0.03l-0.46,2.96
			C230.04,144.57,226.67,144.58,223.48,145.09z"/>
		<path class="st3" d="M255.93,175.93c0,15.17-12.3,27.47-27.48,27.47c-15.17,0-27.47-12.3-27.47-27.47
			c0-15.17,12.3-27.47,27.47-27.47C243.63,148.46,255.93,160.76,255.93,175.93z"/>
		<path d="M228.5,200.59c-0.29,0-0.6,0-0.91-0.01l0.06-2c0.28,0.01,0.57,0.01,0.84,0.01c0.36,0,0.72-0.01,1.08-0.03l0.1,2
			C229.29,200.58,228.9,200.59,228.5,200.59z M225.52,200.42c-0.69-0.08-1.38-0.19-2.06-0.33l0.4-1.96
			c0.62,0.13,1.25,0.23,1.89,0.31L225.52,200.42z M231.75,200.37l-0.27-1.98c0.64-0.09,1.27-0.2,1.89-0.33l0.43,1.95
			C233.13,200.16,232.44,200.28,231.75,200.37z M221.44,199.58c-0.66-0.2-1.32-0.42-1.97-0.68l0.73-1.86
			c0.59,0.23,1.2,0.44,1.81,0.62L221.44,199.58z M235.82,199.47l-0.6-1.91c0.61-0.19,1.22-0.41,1.8-0.65l0.76,1.85
			C237.14,199.03,236.48,199.26,235.82,199.47z M217.56,198.06c-0.62-0.3-1.23-0.64-1.83-1l1.03-1.71c0.55,0.33,1.11,0.64,1.68,0.92
			L217.56,198.06z M239.67,197.9l-0.91-1.78c0.56-0.29,1.12-0.6,1.67-0.94l1.06,1.7C240.89,197.24,240.28,197.59,239.67,197.9z
			 M214,195.91c-0.56-0.41-1.11-0.84-1.63-1.29l1.3-1.52c0.48,0.42,0.99,0.82,1.5,1.19L214,195.91z M243.2,195.7l-1.2-1.6
			c0.5-0.38,1-0.78,1.48-1.21l1.33,1.5C244.29,194.85,243.75,195.29,243.2,195.7z M210.84,193.19c-0.48-0.49-0.95-1.01-1.4-1.55
			l1.54-1.28c0.41,0.49,0.84,0.97,1.28,1.42L210.84,193.19z M246.32,192.93l-1.45-1.38c0.44-0.46,0.87-0.95,1.26-1.44l1.56,1.25
			C247.25,191.9,246.79,192.43,246.32,192.93z M208.19,189.99c-0.39-0.57-0.77-1.16-1.12-1.76l1.73-1c0.32,0.55,0.66,1.09,1.03,1.62
			L208.19,189.99z M248.92,189.69l-1.66-1.12c0.35-0.52,0.69-1.07,1-1.63l1.75,0.97C249.67,188.52,249.31,189.12,248.92,189.69z
			 M206.11,186.38c-0.29-0.62-0.56-1.27-0.8-1.92l1.88-0.7c0.22,0.6,0.47,1.2,0.74,1.77L206.11,186.38z M250.95,186.05l-1.82-0.82
			c0.26-0.58,0.5-1.18,0.71-1.78l1.89,0.66C251.49,184.77,251.23,185.42,250.95,186.05z M204.67,182.47
			c-0.18-0.67-0.34-1.35-0.47-2.03l1.97-0.36c0.12,0.62,0.26,1.25,0.43,1.86L204.67,182.47z M252.33,182.12l-1.94-0.5
			c0.16-0.62,0.29-1.25,0.4-1.87l1.97,0.33C252.65,180.76,252.5,181.45,252.33,182.12z M203.92,178.38
			c-0.07-0.69-0.11-1.39-0.12-2.08l2-0.03c0.01,0.63,0.04,1.28,0.11,1.91L203.92,178.38z M253.03,178.01l-1.99-0.17
			c0.05-0.64,0.08-1.28,0.08-1.91c0-0.23,0-0.46-0.01-0.68l2-0.06c0.01,0.25,0.01,0.49,0.01,0.74
			C253.11,176.62,253.08,177.32,253.03,178.01z M205.85,174.36l-2-0.14c0.05-0.69,0.12-1.38,0.23-2.07l1.98,0.3
			C205.96,173.09,205.89,173.73,205.85,174.36z M250.97,173.35c-0.07-0.63-0.17-1.27-0.3-1.89l1.96-0.39
			c0.14,0.68,0.24,1.37,0.32,2.06L250.97,173.35z M206.43,170.58l-1.94-0.47c0.16-0.68,0.36-1.35,0.58-2l1.9,0.64
			C206.76,169.34,206.58,169.96,206.43,170.58z M250.21,169.6c-0.18-0.61-0.38-1.22-0.61-1.81l1.87-0.72
			c0.25,0.65,0.48,1.31,0.67,1.98L250.21,169.6z M207.65,166.95l-1.84-0.79c0.27-0.63,0.58-1.26,0.91-1.88l1.76,0.95
			C208.18,165.79,207.9,166.37,207.65,166.95z M248.84,166.03c-0.27-0.57-0.58-1.13-0.91-1.68l1.72-1.03
			c0.36,0.6,0.69,1.22,0.99,1.84L248.84,166.03z M209.46,163.58l-1.68-1.09c0.38-0.58,0.79-1.15,1.21-1.7l1.58,1.23
			C210.18,162.52,209.8,163.05,209.46,163.58z M246.88,162.74c-0.37-0.52-0.77-1.03-1.18-1.51l1.52-1.3
			c0.45,0.53,0.88,1.08,1.28,1.64L246.88,162.74z M211.81,160.56l-1.47-1.36c0.47-0.51,0.97-1.01,1.48-1.47l1.35,1.48
			C212.7,159.64,212.24,160.09,211.81,160.56z M244.4,159.83c-0.46-0.45-0.93-0.89-1.42-1.29l1.28-1.54
			c0.53,0.44,1.04,0.91,1.54,1.4L244.4,159.83z M214.63,157.98l-1.22-1.58c0.55-0.42,1.12-0.83,1.7-1.2l1.08,1.68
			C215.66,157.22,215.14,157.59,214.63,157.98z M241.46,157.38c-0.52-0.37-1.07-0.71-1.61-1.03l1.01-1.73
			c0.6,0.35,1.19,0.73,1.76,1.12L241.46,157.38z M217.85,155.9l-0.94-1.77c0.61-0.32,1.24-0.62,1.88-0.9l0.79,1.84
			C218.99,155.33,218.41,155.61,217.85,155.9z M238.16,155.45c-0.58-0.28-1.17-0.53-1.76-0.75l0.7-1.87
			c0.64,0.24,1.29,0.51,1.92,0.81L238.16,155.45z M221.36,154.41l-0.62-1.9c0.66-0.22,1.33-0.41,2-0.57l0.46,1.95
			C222.59,154.03,221.97,154.21,221.36,154.41z M234.57,154.11c-0.61-0.17-1.24-0.32-1.86-0.44l0.37-1.96
			c0.68,0.13,1.37,0.29,2.03,0.48L234.57,154.11z M225.08,153.52l-0.29-1.98c0.68-0.1,1.38-0.17,2.07-0.22l0.13,2
			C226.35,153.36,225.71,153.43,225.08,153.52z M230.81,153.4c-0.63-0.07-1.27-0.11-1.91-0.12l0.04-2c0.69,0.01,1.39,0.06,2.08,0.13
			L230.81,153.4z"/>
		<path d="M246.63,175.93c0,10.04-8.14,18.17-18.18,18.17c-10.04,0-18.17-8.14-18.17-18.17c0-10.04,8.14-18.17,18.17-18.17
			C238.49,157.76,246.63,165.9,246.63,175.93z"/>
		<path class="st4" d="M242.14,175.93c0,7.56-6.13,13.68-13.69,13.68c-7.56,0-13.68-6.13-13.68-13.68c0-7.56,6.13-13.68,13.68-13.68
			C236.01,162.25,242.14,168.38,242.14,175.93z"/>
		<path class="st5" d="M299.78,178.25c-1.68-1.38-3.73-2.92-4.95-4.29c0,0-6.09-6.7-7.45-8.1c0,0-4.01-3.97-5.1-5
			c-1.5-1.41-8.47-7.36-10.3-8.74c-1.63-1.23-6.39-4.22-10.95-7.18c-10.54-5.89-22.32-9.41-34.45-9.19
			c-14.91,0.27-28.74,5.3-40.7,14.13c-11.79,8.71-22.15,19.34-32.94,29.22c-1.9,1.74-3.85,3.43-5.77,5.15
			c-0.49,0.44-0.46,0.34-0.05,0.93c0.32,0.45,2.34-0.96,2.85-1.24c5.53-3.03,10.87-6.39,16.09-9.92
			c12.98-8.77,25.38-19.19,40.22-24.73c10.89-4.07,23-4.53,34.24-1.72c7.56,1.89,14.83,4.86,21.76,8.41
			c3.07,1.58,5.95,3.44,8.79,5.4c1.48,1.02,11.36,8.08,12.62,9.07c1.69,1.31,3.35,2.65,5.04,3.96c0.65,0.65,1.85,1.75,2.74,2.56
			c0.63,0.57,1.26,1.14,1.89,1.7c-0.6,1-1.18,2.01-1.79,3c-5.76,9.46-13.47,17.96-22.5,24.39c-16.28,11.58-38.88,16.98-58.55,12.29
			c10.5,3.31,22.35,3.33,33.13,1.68c13.58-2.08,26.37-8.09,36.99-16.74c4.56-3.71,8.66-7.9,12.46-12.39
			c2.01-2.37,3.84-4.88,5.62-7.43C300.18,181.41,300.96,179.22,299.78,178.25z"/>
		<path d="M228.45,198.82c-12.62,0-22.88-10.27-22.88-22.88c0-12.62,10.27-22.89,22.88-22.89c12.62,0,22.89,10.27,22.89,22.89
			C251.34,188.55,241.07,198.82,228.45,198.82z M228.45,154.05c-12.07,0-21.88,9.82-21.88,21.89c0,12.07,9.82,21.88,21.88,21.88
			c12.07,0,21.89-9.82,21.89-21.88C250.34,163.87,240.52,154.05,228.45,154.05z"/>
	</g>
	
		<radialGradient id="SVGID_1_" cx="201.0684" cy="313.2306" r="63.5532" gradientTransform="matrix(1.4658 0 0 0.118 -58.0151 208.8682)" gradientUnits="userSpaceOnUse">
		<stop  offset="0.2043" style="stop-color:#000000"/>
		<stop  offset="0.2543" style="stop-color:#252525"/>
		<stop  offset="0.3317" style="stop-color:#585858"/>
		<stop  offset="0.4129" style="stop-color:#848484"/>
		<stop  offset="0.4962" style="stop-color:#AAAAAA"/>
		<stop  offset="0.5823" style="stop-color:#C9C9C9"/>
		<stop  offset="0.672" style="stop-color:#E1E1E1"/>
		<stop  offset="0.767" style="stop-color:#F2F2F2"/>
		<stop  offset="0.8708" style="stop-color:#FCFCFC"/>
		<stop  offset="1" style="stop-color:#FFFFFF"/>
	</radialGradient>
	<!-- <path class="st6" d="M329.86,245.83c0,4.14-41.7,7.5-93.15,7.5c-51.44,0-93.15-3.36-93.15-7.5c0-4.14,41.71-7.5,93.15-7.5
		C288.16,238.33,329.86,241.69,329.86,245.83z"/> -->
</g>
</svg>


