<?xml version="1.0" encoding="UTF-8"?>
<svg id="Layer_1" data-name="Layer 1" xmlns="http://www.w3.org/2000/svg" viewBox="0 0 153.55 99.98">
  <defs>
    <style>
      .cls-1 {
        fill: #950101;
      }

      .cls-2 {
        fill: #FF0000;
      }

      .cls-3 {
        fill: #fff;
        <!-- stroke: #000; -->
        stroke-miterlimit: 10;
      }

      .cls-4 {
        fill: #3D0000;
      }

      .cls-5 {
        fill: #FF0000;
      }
    </style>
  </defs>
  <g>
    <path class="cls-2" d="M13.59,35.34C30.66,14.83,56.5,.13,83.45,0c28.42-.14,51.77,19.88,66.02,42.85,.25,.4,2.29,4.55,2.74,4.55-.28,.97-3.25-2.71-3.49-2.98-4.95-5.48-10.07-10.69-15.46-15.74-10.66-9.98-24.49-19.51-38.95-22.75C67.69-.03,41.53,11.49,21.45,28.68c-1.83,1.57-3.62,3.19-5.35,4.88-.54,.52-1.82,2.56-2.51,1.78Z"/>
    <path class="cls-1" d="M81.64,18.64c-19.96,0-36.15,16.19-36.15,36.16s16.19,36.15,36.15,36.15,36.16-16.18,36.16-36.15-16.19-36.15-36.16-36.16Zm5.25,44.66c-6.45,0-6.43-10,0-10s6.43,10,0,10Z"/>
    <path d="M81.64,89.04c-3.6,0-7.14-.56-10.54-1.65l.92-2.86c6.22,2.01,13.09,2,19.3-.02l.93,2.85c-3.42,1.11-6.98,1.68-10.61,1.68Zm-15.5-3.71c-3.2-1.63-6.12-3.74-8.66-6.29l2.12-2.12c2.33,2.32,4.99,4.25,7.91,5.74l-1.37,2.67Zm31.07-.03l-1.37-2.67c2.92-1.49,5.57-3.43,7.9-5.75l2.12,2.12c-2.54,2.55-5.45,4.67-8.65,6.3Zm-43.23-10.33c-4.28-5.87-6.55-12.82-6.57-20.1h3c0,6.64,2.08,12.98,5.99,18.33l-2.42,1.77Zm55.37-.05l-2.43-1.77c3.9-5.36,5.96-11.7,5.96-18.35v-.13h3v.13c0,7.29-2.26,14.24-6.53,20.12Zm-58.57-24.94l-2.96-.46c.55-3.56,1.66-6.99,3.29-10.19l2.68,1.36c-1.5,2.92-2.51,6.05-3.01,9.29Zm61.7-.19c-.52-3.24-1.55-6.36-3.05-9.28l2.67-1.37c1.65,3.2,2.77,6.62,3.35,10.17l-2.97,.48Zm-56.15-13.29l-2.43-1.76c4.22-5.82,10.28-10.25,17.08-12.48l.93,2.85c-6.2,2.04-11.73,6.08-15.58,11.39Zm50.52-.15c-3.88-5.29-9.43-9.3-15.65-11.29l.92-2.86c6.81,2.19,12.9,6.58,17.15,12.38l-2.42,1.77Zm-30.18-12.39l-.47-2.96c3.51-.56,7.18-.57,10.7-.03l-.46,2.96c-3.21-.49-6.58-.48-9.77,.03Z"/>
    <path d="M81.69,79.46c-.29,0-.6,0-.91,0l.06-2c.28,0,.57,0,.84,0,.36,0,.72,0,1.08-.03l.1,2c-.38,.02-.77,.03-1.17,.03Zm-2.98-.17c-.69-.08-1.38-.19-2.06-.33l.4-1.96c.62,.13,1.25,.23,1.89,.31l-.23,1.98Zm6.23-.05l-.27-1.98c.64-.09,1.27-.2,1.89-.33l.43,1.95c-.67,.15-1.36,.27-2.05,.36Zm-10.31-.79c-.66-.2-1.32-.42-1.97-.68l.73-1.86c.59,.23,1.2,.44,1.81,.62l-.57,1.92Zm14.38-.11l-.6-1.91c.61-.19,1.22-.41,1.8-.65l.76,1.85c-.64,.27-1.3,.5-1.96,.71Zm-18.26-1.41c-.62-.3-1.23-.64-1.83-1l1.03-1.71c.55,.33,1.11,.64,1.68,.92l-.88,1.79Zm22.11-.16l-.91-1.78c.56-.29,1.12-.6,1.67-.94l1.06,1.7c-.6,.36-1.21,.71-1.82,1.02Zm-25.67-1.99c-.56-.41-1.11-.84-1.63-1.29l1.3-1.52c.48,.42,.99,.82,1.5,1.19l-1.17,1.62Zm29.2-.21l-1.2-1.6c.5-.38,1-.78,1.48-1.21l1.33,1.5c-.52,.46-1.06,.9-1.61,1.31Zm-32.36-2.51c-.48-.49-.95-1.01-1.4-1.55l1.54-1.28c.41,.49,.84,.97,1.28,1.42l-1.42,1.41Zm35.48-.26l-1.45-1.38c.44-.46,.87-.95,1.26-1.44l1.56,1.25c-.44,.54-.9,1.07-1.37,1.57Zm-38.13-2.94c-.39-.57-.77-1.16-1.12-1.76l1.73-1c.32,.55,.66,1.09,1.03,1.62l-1.64,1.14Zm40.73-.3l-1.66-1.12c.35-.52,.69-1.07,1-1.63l1.75,.97c-.34,.61-.7,1.21-1.09,1.78Zm-42.81-3.31c-.29-.62-.56-1.27-.8-1.92l1.88-.7c.22,.6,.47,1.2,.74,1.77l-1.82,.85Zm44.84-.33l-1.82-.82c.26-.58,.5-1.18,.71-1.78l1.89,.66c-.24,.66-.5,1.31-.78,1.94Zm-46.28-3.58c-.18-.67-.34-1.35-.47-2.03l1.97-.36c.12,.62,.26,1.25,.43,1.86l-1.93,.53Zm47.66-.35l-1.94-.5c.16-.62,.29-1.25,.4-1.87l1.97,.33c-.11,.68-.26,1.37-.43,2.04Zm-48.41-3.74c-.07-.69-.11-1.39-.12-2.08l2-.03c0,.63,.04,1.28,.11,1.91l-1.99,.2Zm49.11-.37l-1.99-.17c.05-.64,.08-1.28,.08-1.91,0-.23,0-.46,0-.68l2-.06c0,.25,0,.49,0,.74,0,.69-.04,1.39-.09,2.08Zm-47.18-3.65l-2-.14c.05-.69,.12-1.38,.23-2.07l1.98,.3c-.1,.64-.17,1.28-.21,1.91Zm45.12-1.01c-.07-.63-.17-1.27-.3-1.89l1.96-.39c.14,.68,.24,1.37,.32,2.06l-1.98,.22Zm-44.54-2.77l-1.94-.47c.16-.68,.36-1.35,.58-2l1.9,.64c-.21,.59-.39,1.21-.54,1.83Zm43.78-.98c-.18-.61-.38-1.22-.61-1.81l1.87-.72c.25,.65,.48,1.31,.67,1.98l-1.93,.55Zm-42.56-2.65l-1.84-.79c.27-.63,.58-1.26,.91-1.88l1.76,.95c-.3,.56-.58,1.14-.83,1.72Zm41.19-.92c-.27-.57-.58-1.13-.91-1.68l1.72-1.03c.36,.6,.69,1.22,.99,1.84l-1.8,.87Zm-39.38-2.45l-1.68-1.09c.38-.58,.79-1.15,1.21-1.7l1.58,1.23c-.39,.5-.77,1.03-1.11,1.56Zm37.42-.84c-.37-.52-.77-1.03-1.18-1.51l1.52-1.3c.45,.53,.88,1.08,1.28,1.64l-1.62,1.17Zm-35.07-2.18l-1.47-1.36c.47-.51,.97-1.01,1.48-1.47l1.35,1.48c-.47,.43-.93,.88-1.36,1.35Zm32.59-.73c-.46-.45-.93-.89-1.42-1.29l1.28-1.54c.53,.44,1.04,.91,1.54,1.4l-1.4,1.43Zm-29.77-1.85l-1.22-1.58c.55-.42,1.12-.83,1.7-1.2l1.08,1.68c-.53,.34-1.05,.71-1.56,1.1Zm26.83-.6c-.52-.37-1.07-.71-1.61-1.03l1.01-1.73c.6,.35,1.19,.73,1.76,1.12l-1.16,1.64Zm-23.61-1.48l-.94-1.77c.61-.32,1.24-.62,1.88-.9l.79,1.84c-.59,.26-1.17,.54-1.73,.83Zm20.31-.45c-.58-.28-1.17-.53-1.76-.75l.7-1.87c.64,.24,1.29,.51,1.92,.81l-.86,1.81Zm-16.8-1.04l-.62-1.9c.66-.22,1.33-.41,2-.57l.46,1.95c-.61,.14-1.23,.32-1.84,.52Zm13.21-.3c-.61-.17-1.24-.32-1.86-.44l.37-1.96c.68,.13,1.37,.29,2.03,.48l-.54,1.92Zm-9.49-.59l-.29-1.98c.68-.1,1.38-.17,2.07-.22l.13,2c-.64,.04-1.28,.11-1.91,.2Zm5.73-.12c-.63-.07-1.27-.11-1.91-.12l.04-2c.69,0,1.39,.06,2.08,.13l-.21,1.99Z"/>
    <path d="M81.64,36.63c-10.03,0-18.17,8.13-18.17,18.17s8.13,18.17,18.17,18.17,18.18-8.13,18.18-18.17-8.14-18.17-18.18-18.17Zm5.25,26.67c-6.45,0-6.43-10,0-10s6.43,10,0,10Z"/>
    <path class="cls-5" d="M81.64,41.12c-7.55,0-13.68,6.12-13.68,13.68s6.12,13.68,13.68,13.68,13.69-6.12,13.69-13.68-6.13-13.68-13.69-13.68Zm5.25,22.18c-6.45,0-6.43-10,0-10s6.43,10,0,10Z"/>
    <path class="cls-4" d="M152.97,57.12c-1.68-1.38-3.73-2.92-4.95-4.29,0,0-6.09-6.7-7.45-8.1,0,0-4.01-3.97-5.1-5-1.5-1.41-8.47-7.36-10.3-8.74-1.63-1.23-6.39-4.22-10.95-7.18-10.54-5.89-22.32-9.41-34.45-9.19-14.91,.27-28.74,5.3-40.7,14.13-11.79,8.71-22.15,19.34-32.94,29.22-1.9,1.74-3.85,3.43-5.77,5.15-.49,.44-.46,.34-.05,.93,.32,.45,2.34-.96,2.85-1.24,5.53-3.03,10.87-6.39,16.09-9.92,12.98-8.77,25.38-19.19,40.22-24.73,10.89-4.07,23-4.53,34.24-1.72,7.56,1.89,14.83,4.86,21.76,8.41,3.07,1.58,5.95,3.44,8.79,5.4,1.48,1.02,11.36,8.08,12.62,9.07,1.69,1.31,3.35,2.65,5.04,3.96,.65,.65,1.85,1.75,2.74,2.56,.63,.57,1.26,1.14,1.89,1.7-.6,1-1.18,2.01-1.79,3-5.76,9.46-13.47,17.96-22.5,24.39-16.28,11.58-38.88,16.98-58.55,12.29,10.5,3.31,22.35,3.33,33.13,1.68,13.58-2.08,26.37-8.09,36.99-16.74,4.56-3.71,8.66-7.9,12.46-12.39,2.01-2.37,3.84-4.88,5.62-7.43,1.46-2.06,2.24-4.25,1.06-5.22Z"/>
    <path d="M81.64,77.69c-12.62,0-22.88-10.27-22.88-22.88s10.27-22.89,22.88-22.89,22.89,10.27,22.89,22.89-10.27,22.88-22.89,22.88Zm0-44.77c-12.07,0-21.88,9.82-21.88,21.89s9.82,21.88,21.88,21.88,21.89-9.82,21.89-21.88-9.82-21.89-21.89-21.89Z"/>
  </g>
  <circle class="cls-3" cx="87.1" cy="58.62" r="5.49"/>
</svg>