<?xml version="1.0" encoding="iso-8859-1"?>
<!-- Generator: Adobe Illustrator 19.0.0, SVG Export Plug-In . SVG Version: 6.00 Build 0)  -->
<!-- License: CC0. Made by SVG Repo: https://www.svgrepo.com/svg/83426/eye -->
<svg version="1.1" id="Capa_1" xmlns="http://www.w3.org/2000/svg" xmlns:xlink="http://www.w3.org/1999/xlink" x="0px" y="0px"
	 viewBox="0 0 487.85 487.85" style="enable-background:new 0 0 487.85 487.85;" xml:space="preserve">
	 <style type="text/css">
	.whiteye{fill:#D1E8E2;}

</style>
<g class="whiteye">
	<g>
		<path d="M243.925,98.525c-93.2,0-177.7,50.9-240.1,133.8c-5.1,6.8-5.1,16.2,0,23c62.4,83,146.9,134,240.1,134
			s177.7-50.9,240.1-133.8c5.1-6.8,5.1-16.2,0-23C421.625,149.525,337.125,98.525,243.925,98.525z M250.625,346.325
			c-61.9,3.9-112.9-47.1-109-109c3.2-51,44.6-92.5,95.7-95.7c61.9-3.9,112.9,47.1,109,109
			C343.025,301.625,301.625,343.025,250.625,346.325z"/>
			
		
	</g>
</g>
</svg>
