<?xml version="1.0" encoding="utf-8"?>

<!DOCTYPE svg PUBLIC "-//W3C//DTD SVG 1.1//EN" "http://www.w3.org/Graphics/SVG/1.1/DTD/svg11.dtd">
<!-- Uploaded to: SVG Repo, www.svgrepo.com, Generator: SVG Repo Mixer Tools -->
<svg height="800px" width="800px" version="1.1" id="_x32_" xmlns="http://www.w3.org/2000/svg" xmlns:xlink="http://www.w3.org/1999/xlink" 
	 viewBox="0 0 512 512"  xml:space="preserve">
<style type="text/css">
	.st0{fill:#fff;}
</style>
<g>
	<path class="st0" d="M228.452,116.033c1.695,9.628,4.544,18.109,8.313,22.296c0,5.018,0,8.686,0,11.607
		c0,0.292-0.051,0.599-0.146,0.928l12.799,6.15v9.892h13.171v-9.892l12.784-6.15c-0.081-0.329-0.139-0.636-0.139-0.928
		c0-2.922,0-6.589,0-11.607c3.762-4.186,6.626-12.668,8.314-22.296c3.959-1.41,6.238-3.674,9.058-13.58
		c3.003-10.557-4.529-10.198-4.529-10.198c6.107-20.162-1.928-39.119-15.363-37.732c-9.263-16.209-40.302,3.697-50.04,2.309
		c0,5.567,2.33,9.73,2.33,9.73c-3.404,6.429-2.075,19.22-1.14,25.692c-0.548-0.007-7.37,0.066-4.456,10.198
		C222.221,112.359,224.478,114.623,228.452,116.033z"/>
	<path class="st0" d="M92.314,116.033c1.695,9.628,4.551,18.109,8.313,22.296c0,5.018,0,8.686,0,11.607
		c0,0.292-0.058,0.599-0.146,0.928l12.792,6.15v9.892h13.186v-9.899l12.769-6.143c-0.081-0.329-0.139-0.636-0.139-0.928
		c0-2.922,0-6.589,0-11.607c3.777-4.186,6.626-12.668,8.321-22.296c3.959-1.41,6.231-3.674,9.059-13.58
		c3.017-10.557-4.522-10.198-4.522-10.198c6.1-20.162-1.944-39.119-15.378-37.732c-9.256-16.209-40.295,3.697-50.018,2.309
		c0,5.567,2.309,9.73,2.309,9.73c-3.39,6.429-2.075,19.22-1.125,25.692c-0.548-0.007-7.378,0.066-4.471,10.198
		C86.082,112.359,88.346,114.623,92.314,116.033z"/>
	<path class="st0" d="M364.591,116.033c1.702,9.628,4.544,18.109,8.32,22.296c0,5.018,0,8.686,0,11.607
		c0,0.292-0.065,0.599-0.153,0.928l12.799,6.15v9.892h13.178v-9.892l12.769-6.15c-0.072-0.329-0.132-0.636-0.132-0.928
		c0-2.922,0-6.589,0-11.607c3.77-4.186,6.619-12.668,8.314-22.296c3.966-1.41,6.238-3.674,9.058-13.58
		c3.01-10.557-4.522-10.198-4.522-10.198c6.093-20.162-1.928-39.119-15.363-37.732c-9.277-16.209-40.302,3.697-50.04,2.309
		c0,5.567,2.315,9.73,2.315,9.73c-3.39,6.429-2.074,19.22-1.125,25.692c-0.548-0.007-7.37,0.066-4.478,10.198
		C358.367,112.359,360.624,114.623,364.591,116.033z"/>
	<path class="st0" d="M460.208,215.229c-1.586-29.016-28.608-53.02-38.352-53.02l-21.448,33.012l-1.673-21.287h-13.178
		l-1.673,21.287l-21.455-33.012c-9.738,0-36.774,24.004-38.345,53.02c-1.593-29.016-28.622-53.02-38.367-53.02l-21.452,33.019
		l-1.676-21.294h-13.171l-1.677,21.287l-21.458-33.012c-9.731,0-36.767,24.004-38.345,53.02
		c-1.593-29.016-28.614-53.02-38.359-53.02l-21.448,33.005l-1.673-21.28h-13.186l-1.674,21.287l-21.448-33.012
		c-9.73,0-36.782,24.004-38.359,53.02v24.597h408.417V215.229z"/>
	<path class="st0" d="M511.352,426.546l-30.324-145.921c-3.368-16.188-17.628-27.788-34.159-27.788H65.131
		c-16.532,0-30.791,11.601-34.159,27.788L0.648,426.546c-1.899,9.138,0.424,18.643,6.311,25.882
		c5.889,7.24,14.72,11.44,24.057,11.44h192.556c0-4.23,0-9.299,0-15.677c-6.334-7.05-11.148-21.353-14.012-37.578
		c-6.677-2.382-10.49-6.194-15.26-22.887c-4.873-17.072,6.604-17.196,7.546-17.182c-1.614-10.914-3.814-32.486,1.892-43.312
		c0,0-3.908-7.02-3.908-16.4c16.408,2.345,68.72-31.229,84.338-3.894c22.646-2.345,36.168,29.608,25.897,63.606
		c0,0,12.703-0.599,7.626,17.182c-4.763,16.693-8.576,20.506-15.26,22.887c-2.857,16.224-7.67,30.528-14.012,37.578
		c0,6.378,0,11.447,0,15.677h192.564c9.336,0,18.168-4.2,24.056-11.44C510.928,445.189,513.251,435.684,511.352,426.546z"/>
</g>
</svg>